<svg xmlns="http://www.w3.org/2000/svg" viewBox="0 0 128 128" role="img" aria-labelledby="title desc">
  <title id="title">Local Media Proxy by Amsive</title>
  <desc id="desc">A media image flowing to the Amsive mark</desc>
  <rect x="9" y="35" width="67" height="57" rx="8" fill="none" stroke="#fff" stroke-width="7"/>
  <circle cx="27" cy="52" r="6" fill="#fff"/>
  <path d="m17 81 17-18 12 12 10-9 13 15" fill="none" stroke="#fff" stroke-linecap="round" stroke-linejoin="round" stroke-width="6"/>
  <path d="M78 64h13" fill="none" stroke="#abeaf5" stroke-linecap="round" stroke-width="7"/>
  <path d="m86 57 7 7-7 7" fill="none" stroke="#abeaf5" stroke-linecap="round" stroke-linejoin="round" stroke-width="6"/>
  <g transform="translate(96 46) scale(.057)">
    <path d="M310.53,345.408c0,53.784-50.97,76.526-109.138,76.526-46.985,0-105.551-16.552-105.551-63.138,0-49.165,41.78-61.99,108.857-61.99H310.53ZM194.17.058C111.9.058,45.2,26.457,45.2,26.457L31.248,129.57S96.52,95.129,196.538,95.129c107.544,0,113.991,54.393,113.991,88.9v30.924h-117.2C95.3,214.958.113,245.109.113,360.249c0,83.63,72.657,151.809,199.637,151.809,109.56,0,207.538-39.9,207.538-173.168V172.428C407.265,38.227,301.433.058,194.17.058" fill="#fff"/>
  </g>
</svg>
